<?xml version="1.0" encoding="utf-8"?>
<!-- Generator: Adobe Illustrator 19.0.0, SVG Export Plug-In . SVG Version: 6.00 Build 0)  -->
<!DOCTYPE svg PUBLIC "-//W3C//DTD SVG 1.1//EN" "http://www.w3.org/Graphics/SVG/1.1/DTD/svg11.dtd">
<svg version="1.1" id="Layer_1" xmlns="http://www.w3.org/2000/svg" xmlns:xlink="http://www.w3.org/1999/xlink" x="0px" y="0px"
	 viewBox="0 0 269.7 49.6" style="enable-background:new 0 0 269.7 49.6;" xml:space="preserve">
<style type="text/css">
	.st0{fill:#898989;}
	.st1{fill:url(#edge_1_);}
	.st2{fill:#FFFFFF;}
	.st3{fill:#1F99D5;}
</style>
<path id="panel" class="st0" d="M269.7,4.5C264.3,2.9,258.3,2,252,2c-23.9,0-43.5,13-45.5,29.6H65C63,15,43.4,2,19.5,2
	C12.5,2,5.9,3.1,0,5.1v44.5h59.6h152.3h57.8V4.5z"/>
<linearGradient id="edge_1_" gradientUnits="userSpaceOnUse" x1="134.8455" y1="16.6667" x2="134.8455" y2="48.2185">
	<stop  offset="0" style="stop-color:#FFFFFF"/>
	<stop  offset="0.212" style="stop-color:#B7B7B7"/>
	<stop  offset="0.4239" style="stop-color:#767676"/>
	<stop  offset="0.6149" style="stop-color:#434343"/>
	<stop  offset="0.7806" style="stop-color:#1F1F1F"/>
	<stop  offset="0.9145" style="stop-color:#080808"/>
	<stop  offset="1" style="stop-color:#000000"/>
</linearGradient>
<path id="edge" class="st1" d="M269.7,4.5C264.3,2.9,258.3,2,252,2c-23.9,0-43.5,13-45.5,29.6H65C63,15,43.4,2,19.5,2
	C12.5,2,5.9,3.1,0,5.1l0-2.2C6.2,0.9,12.7,0,19.5,0c24.1,0,44,12.6,47.2,29.6h138.1C208,12.6,227.9,0,252,0c6.1,0,12,0.5,17.7,2.1
	V4.5z"/>
<path id="ring" class="st2" d="M49.5,35.6c-0.7,0.4-1.3,0.8-2,1.1c-3.4,1.4-7.3-0.8-8-4.4c-0.1-0.4-0.1-0.8-0.1-1.1
	c0-1.6,0-3.2,0-4.8c0-2.5,1.5-4.6,3.8-5.6c3.4-1.4,7.4,0.8,8,4.5c0.1,0.4,0.1,0.8,0.1,1.1c0,3.7,0,7.4,0,11.1c0,2.7-1.7,5.1-4.4,5.8
	c-2.2,0.6-4.2,0.1-5.9-1.3c-0.2-0.2-0.4-0.4-0.6-0.7c-0.3-0.4-0.2-0.9,0.2-1.2c0.4-0.3,0.9-0.2,1.3,0.2c0.6,0.8,1.4,1.2,2.4,1.3
	c1.7,0.3,3.2-0.1,4.3-1.5c0.6-0.7,0.9-1.6,0.9-2.5C49.5,37,49.5,36.3,49.5,35.6z M41.2,28.8C41.2,28.8,41.2,28.8,41.2,28.8
	c0,0.9,0,1.7,0,2.6c0,2,1.7,3.8,3.7,4c2.5,0.2,4.6-1.7,4.6-4.2c0-1.6,0-3.1,0-4.7c0-2.5-2.2-4.4-4.7-4.1c-2.1,0.2-3.6,2-3.6,4.1
	C41.2,27.1,41.2,28,41.2,28.8z M35.7,26.2c0-0.4-0.1-0.9-0.2-1.3c-0.8-3-3.5-4.9-6.6-4.5c-2.8,0.4-5,2.8-5.1,5.5c0,3.5,0,7,0,10.6
	c0,0.4,0.3,0.7,0.6,0.8c0.4,0.1,0.9-0.1,1-0.4c0.1-0.2,0.1-0.4,0.1-0.6c0-3.2,0-6.5,0-9.7c0-0.3,0-0.6,0.1-0.9
	c0.4-2.9,3.9-4.5,6.4-2.8c1.3,0.8,1.9,2.1,1.9,3.6c0,3.2,0,6.4,0,9.6c0,0.2,0,0.4,0,0.6c0,0.3,0.1,0.5,0.4,0.6
	c0.6,0.4,1.4,0,1.4-0.8c0-1.8,0-3.5,0-5.3C35.7,29.6,35.7,27.9,35.7,26.2z M5.7,31.2c0,1.7,0,3.4,0,5.1c0,0.1,0,0.3,0,0.4
	c0,0.3,0.2,0.5,0.4,0.6c0.5,0.3,1.4,0,1.4-0.8c0-3.3,0-6.6,0-9.9c0-0.5,0-1,0.1-1.5c0.4-2.2,2.2-3.4,4.4-2.9
	c0.6,0.1,1.1,0.5,1.6,0.9c0.6,0.5,1.3,0.2,1.5-0.5c0.1-0.4-0.1-0.6-0.3-0.8c-0.7-0.7-1.5-1.1-2.4-1.3c-1.9-0.5-3.7-0.1-5.1,1.4
	c-1,1.1-1.5,2.5-1.5,3.9C5.7,27.6,5.7,29.4,5.7,31.2C5.7,31.2,5.7,31.2,5.7,31.2z M19.7,21.8c0-0.1,0-0.2,0-0.3
	c0-0.4-0.3-0.7-0.7-0.7c-0.4-0.1-0.9,0.1-1,0.4C18,21.4,18,21.6,18,21.8c0,4.8,0,9.7,0,14.5c0,0.1,0,0.3,0,0.4
	c0.1,0.2,0.2,0.4,0.4,0.6c0.3,0.2,0.6,0.2,1,0c0.3-0.2,0.4-0.4,0.4-0.8c0-2.5,0-4.9,0-7.4C19.7,26.7,19.7,24.2,19.7,21.8z"/>
<circle id="dot" class="st3" cx="18.8" cy="16" r="1.7"/>
</svg>
