<?xml version="1.0" encoding="utf-8"?>
<!-- Generator: Adobe Illustrator 19.0.0, SVG Export Plug-In . SVG Version: 6.00 Build 0)  -->
<!DOCTYPE svg PUBLIC "-//W3C//DTD SVG 1.1//EN" "http://www.w3.org/Graphics/SVG/1.1/DTD/svg11.dtd">
<svg version="1.1" id="Layer_1" xmlns="http://www.w3.org/2000/svg" xmlns:xlink="http://www.w3.org/1999/xlink" x="0px" y="0px"
	 viewBox="0 0 22.7 33.1" style="enable-background:new 0 0 22.7 33.1;" xml:space="preserve">
<style type="text/css">
	.st0{fill:#FFFFFF;}
</style>
<path id="microphone" class="st0" d="M22.7,16.2L22.7,16.2L22.7,16.2C22.7,16.1,22.7,16.1,22.7,16.2L22.7,16.2l0-6.4
	c0-0.9-0.8-1.7-1.7-1.7c-0.9,0-1.7,0.8-1.7,1.7v6.3c0,4.4-3.6,8-8,8s-8-3.6-8-8l0,0V9.8c0-0.9-0.8-1.7-1.7-1.7C0.8,8.1,0,8.9,0,9.8
	v6.4h0c0,5.7,4.2,10.3,9.6,11.2v2.4h-6v0c-0.9,0-1.7,0.8-1.7,1.7c0,0.9,0.7,1.7,1.7,1.7v0H19l0,0c0.9,0,1.7-0.8,1.7-1.7
	s-0.8-1.7-1.7-1.7l0,0H13v-2.4C18.5,26.5,22.6,21.9,22.7,16.2z M5.6,16.1c0,3.2,2.6,5.7,5.7,5.7c3.2,0,5.7-2.6,5.7-5.7
	c0,0,0-0.1,0-0.1h0V5.6h0C17,2.5,14.5,0,11.3,0C8.2,0,5.7,2.5,5.6,5.6h0V16h0C5.6,16,5.6,16.1,5.6,16.1z"/>
</svg>
